<svg aria-hidden="true" style="position: absolute; width: 0; height: 0; overflow: hidden;" version="1.1"
    xmlns="http://www.w3.org/2000/svg"
    xmlns:xlink="http://www.w3.org/1999/xlink">
    <defs>
        <symbol id="logo" viewBox="0 0 32 32">
            <path fill="#85aa9f" style="fill: var(--color1, #85aa9f)" d="M32 16c0 8.837-7.163 16-16 16s-16-7.163-16-16c0-8.837 7.163-16 16-16s16 7.163 16 16z"></path>
            <path fill="#fcfcfc" style="fill: var(--color2, #fcfcfc)" d="M15.956 14.815c4.696-3.542 4.904-5.689 0-9.482-4.997 3.873-4.353 5.927 0 9.482zM14.815 16.045c-3.542-4.696-5.689-4.904-9.482 0 3.873 4.997 5.927 4.353 9.482 0zM26.666 16.045c-3.542-4.696-5.689-4.904-9.482 0 3.873 4.997 5.927 4.353 9.482 0zM15.956 26.666c4.696-3.542 4.904-5.689 0-9.482-4.997 3.873-4.353 5.927 0 9.482z"></path>
        </symbol>
        <symbol id="icon-heart" viewBox="0 0 36 32">
            <path stroke-linejoin="round" stroke-linecap="round" stroke-miterlimit="4" stroke-width="3.3455" d="M31.040 5.251c-0.743-0.743-1.625-1.333-2.596-1.735s-2.011-0.609-3.062-0.609-2.091 0.207-3.062 0.609c-0.971 0.402-1.853 0.992-2.596 1.735l-1.542 1.542-1.542-1.542c-1.501-1.501-3.536-2.344-5.658-2.344s-4.158 0.843-5.658 2.344c-1.501 1.501-2.344 3.536-2.344 5.658s0.843 4.158 2.344 5.658l12.858 12.858 12.858-12.858c0.743-0.743 1.333-1.625 1.735-2.596s0.609-2.011 0.609-3.062-0.207-2.091-0.609-3.062c-0.402-0.971-0.992-1.853-1.735-2.596z"></path>
        </symbol>
    </defs>
</svg>
