<svg aria-hidden="true" style="position: absolute; width: 0; height: 0; overflow: hidden;" version="1.1"
    xmlns="http://www.w3.org/2000/svg"
    xmlns:xlink="http://www.w3.org/1999/xlink">
    <defs>
        <symbol id="logo" viewBox="0 0 32 32">
            <path fill="#85aa9f" style="fill: var(--color1, #85aa9f)" d="M32 16c0 8.837-7.163 16-16 16s-16-7.163-16-16c0-8.837 7.163-16 16-16s16 7.163 16 16z"></path>
            <path fill="#fcfcfc" style="fill: var(--color2, #fcfcfc)" d="M15.956 14.815c4.696-3.542 4.904-5.689 0-9.482-4.997 3.873-4.353 5.927 0 9.482zM14.815 16.045c-3.542-4.696-5.689-4.904-9.482 0 3.873 4.997 5.927 4.353 9.482 0zM26.666 16.045c-3.542-4.696-5.689-4.904-9.482 0 3.873 4.997 5.927 4.353 9.482 0zM15.956 26.666c4.696-3.542 4.904-5.689 0-9.482-4.997 3.873-4.353 5.927 0 9.482z"></path>
        </symbol>
        <symbol id="error" viewBox="0 0 32 32">
            <path fill="#d80027" style="fill: var(--color2, #d80027)" d="M16 29.333c-7.364 0-13.333-5.969-13.333-13.333s5.969-13.333 13.333-13.333c7.364 0 13.333 5.969 13.333 13.333s-5.969 13.333-13.333 13.333zM14.666 20v2.667h2.667v-2.667h-2.667zM14.666 9.333v8h2.667v-8h-2.667z"></path>
        </symbol>
        <symbol id="success" viewBox="0 0 32 32">
            <path fill="#3cbf61" style="fill: var(--color1, #3cbf61)" d="M16 29.333c-7.364 0-13.333-5.969-13.333-13.333s5.969-13.333 13.333-13.333c7.364 0 13.333 5.969 13.333 13.333s-5.969 13.333-13.333 13.333zM14.459 21.98l9.427-9.428-1.885-1.885-7.541 7.543-3.772-3.772-1.885 1.885 5.657 5.657z"></path>
        </symbol>
        <symbol id="eye" viewBox="0 0 32 32">
            <path d="M16.122 3.612c-10.552 0-16.097 11.55-16.097 11.55-0.107 0.209-0.169 0.455-0.169 0.716s0.062 0.507 0.173 0.725l-0.004-0.009c0 0 5.545 11.55 16.097 11.55s16.097-11.55 16.097-11.55c0.107-0.209 0.169-0.455 0.169-0.716s-0.062-0.507-0.173-0.725l0.004 0.009c0 0-5.545-11.55-16.097-11.55zM16.122 6.812c7.521 0 12.029 7.837 12.712 9.066-0.683 1.229-5.191 9.066-12.712 9.066s-12.029-7.837-12.713-9.066c0.683-1.229 5.191-9.066 12.713-9.066z"></path>
            <path d="M16 10.4c-3.074 0-5.6 2.526-5.6 5.6s2.526 5.6 5.6 5.6c3.074 0 5.6-2.526 5.6-5.6s-2.526-5.6-5.6-5.6zM16 13.6c1.344 0 2.4 1.056 2.4 2.4s-1.056 2.4-2.4 2.4c-1.344 0-2.4-1.056-2.4-2.4s1.056-2.4 2.4-2.4z"></path>
        </symbol>
        <symbol id="eye-off" viewBox="0 0 32 32">
            <path d="M16.118 3.459c-1.066-0.002-2.128 0.12-3.166 0.362-0.714 0.171-1.236 0.804-1.236 1.558 0 0.129 0.015 0.255 0.044 0.375l-0.002-0.011c0.171 0.714 0.803 1.236 1.558 1.236 0.13 0 0.257-0.016 0.378-0.045l-0.011 0.002c0.797-0.187 1.613-0.28 2.431-0.278 0 0 0.001 0 0.002 0s0.001 0 0.002 0h-0c7.541 0 12.065 7.896 12.728 9.091-0.654 1.112-1.334 2.209-2.166 3.197-0.234 0.276-0.377 0.637-0.377 1.031 0 0.49 0.221 0.929 0.568 1.223l0.002 0.002c0.276 0.233 0.636 0.375 1.030 0.375 0.49 0 0.928-0.22 1.222-0.567l0.002-0.002c1.177-1.399 2.207-2.919 3.069-4.531 0.118-0.218 0.188-0.477 0.188-0.753 0-0.261-0.063-0.508-0.173-0.725l0.004 0.009c0 0-5.544-11.548-16.094-11.55zM8.412 6.219c-0.064-0.009-0.137-0.014-0.212-0.014-0.368 0-0.706 0.124-0.976 0.332l0.004-0.003c-2.969 2.267-5.418 5.143-7.184 8.434-0.12 0.219-0.19 0.48-0.19 0.757 0 0.261 0.062 0.507 0.173 0.724l-0.004-0.009c0 0 5.545 11.55 16.097 11.55 0.004 0 0.008 0 0.012 0s0.009-0 0.013-0h-0.001c3.207-0.052 6.315-1.128 8.866-3.072 0.385-0.295 0.631-0.756 0.631-1.273 0-0.367-0.123-0.704-0.331-0.974l0.003 0.004c-0.295-0.385-0.756-0.631-1.273-0.631-0.367 0-0.704 0.123-0.974 0.331l0.004-0.003c-2.004 1.528-4.443 2.372-6.963 2.416-7.53-0.010-12.047-7.886-12.713-9.084 1.505-2.546 3.42-4.829 5.775-6.628 0.384-0.295 0.63-0.755 0.63-1.272 0-0.366-0.123-0.703-0.329-0.972l0.003 0.004c-0.253-0.329-0.625-0.556-1.051-0.615l-0.008-0.001zM13.349 11.3c-0.018-0.001-0.039-0.001-0.059-0.001-0.422 0-0.806 0.163-1.091 0.43l0.001-0.001c-0.55 0.513-0.991 1.132-1.297 1.819s-0.471 1.426-0.484 2.178c-0.013 0.752 0.125 1.5 0.406 2.197s0.703 1.331 1.234 1.863c0.532 0.532 1.165 0.95 1.863 1.231s1.445 0.423 2.197 0.409c0.752-0.013 1.491-0.179 2.178-0.484s1.306-0.75 1.819-1.3c0.265-0.285 0.428-0.668 0.428-1.089 0-0.462-0.195-0.878-0.508-1.17l-0.001-0.001c-0.285-0.265-0.668-0.428-1.089-0.428-0.462 0-0.878 0.195-1.17 0.508l-0.001 0.001c-0.22 0.236-0.483 0.422-0.778 0.553s-0.612 0.204-0.934 0.209c-0.322 0.006-0.642-0.054-0.941-0.175-0 0-0.001 0-0.002 0s-0.001 0-0.002 0h0c-0.299-0.121-0.569-0.3-0.797-0.528s-0.407-0.498-0.528-0.797-0.181-0.621-0.175-0.944c0.006-0.322 0.078-0.64 0.209-0.934s0.32-0.558 0.556-0.778c0.313-0.293 0.509-0.709 0.509-1.17 0-0.423-0.164-0.807-0.432-1.093l0.001 0.001c-0.28-0.299-0.673-0.49-1.11-0.506l-0.003-0z"></path>
            <path d="M0.321-0.072c-0.289 0.29-0.469 0.689-0.469 1.131s0.179 0.842 0.469 1.131l29.331 29.331c0.29 0.289 0.689 0.468 1.131 0.468s0.842-0.179 1.131-0.468v0c0.289-0.29 0.468-0.689 0.468-1.131s-0.179-0.842-0.468-1.131l-29.331-29.331c-0.29-0.289-0.689-0.469-1.131-0.469s-0.842 0.179-1.131 0.469v0z"></path>
        </symbol>
        <symbol id="user" viewBox="0 0 32 32">
            <path d="M16 0c2.122 0 4.157 0.843 5.657 2.343s2.343 3.535 2.343 5.657-0.843 4.157-2.343 5.657c-1.5 1.5-3.535 2.343-5.657 2.343s-4.157-0.843-5.657-2.343c-1.5-1.5-2.343-3.535-2.343-5.657s0.843-4.157 2.343-5.657c1.5-1.5 3.535-2.343 5.657-2.343zM16 32c0 0 16 0 16-4 0-4.8-7.8-10-16-10s-16 5.2-16 10c0 4 16 4 16 4z"></path>
        </symbol>
        <symbol id="arrow-right" viewBox="0 0 32 32">
            <path d="M1.867 14.398c-0 0-0.001 0-0.002 0-0.884 0-1.6 0.716-1.6 1.6 0 0.001 0 0.001 0 0.002v-0c0 0 0 0.001 0 0.002 0 0.884 0.716 1.6 1.6 1.6 0.001 0 0.001 0 0.002 0h25.598c0 0 0.001 0 0.002 0 0.884 0 1.6-0.716 1.6-1.6 0-0.001 0-0.001 0-0.002v0c0-0 0-0.001 0-0.002 0-0.884-0.716-1.6-1.6-1.6-0.001 0-0.001 0-0.002 0h0z"></path>
            <path d="M19.199 5.066c-0.441 0.001-0.84 0.18-1.129 0.469v0c-0.289 0.29-0.468 0.689-0.468 1.131s0.179 0.841 0.468 1.131l8.199 8.203-8.199 8.203c-0.289 0.29-0.468 0.689-0.468 1.131s0.179 0.841 0.468 1.131v0c0.29 0.289 0.689 0.468 1.131 0.468s0.841-0.179 1.131-0.468v0l9.332-9.332c0.29-0.29 0.47-0.69 0.47-1.133s-0.18-0.843-0.47-1.133l-9.332-9.332c-0.29-0.29-0.69-0.469-1.131-0.469-0 0-0.001 0-0.001 0h0z"></path>
        </symbol>
        <symbol id="burger" viewBox="0 0 47 32">
            <path d="M8.537 3.878c-0.803 0-1.455 0.651-1.455 1.455v0c0 0.803 0.651 1.455 1.455 1.455v0h36.554c0.803 0 1.455-0.651 1.455-1.455v0c0-0.803-0.651-1.455-1.455-1.455v0z"></path>
            <path d="M8.537 23.273c-0.803 0-1.455 0.651-1.455 1.455v0c0 0.803 0.651 1.455 1.455 1.455v0h36.554c0.803 0 1.455-0.651 1.455-1.455v0c0-0.803-0.651-1.455-1.455-1.455v0z"></path>
            <path d="M19.668 13.577c-0.803 0-1.455 0.651-1.455 1.455v0c0 0.803 0.651 1.455 1.455 1.455v0h25.423c0.803 0 1.455-0.651 1.455-1.455v0c0-0.803-0.651-1.455-1.455-1.455v0z"></path>
        </symbol>
        <symbol id="close" viewBox="0 0 32 32">
            <path d="M24 6.5c-0.414 0-0.789 0.168-1.061 0.439l-16 16c-0.271 0.271-0.439 0.646-0.439 1.061s0.168 0.789 0.439 1.061v0c0.271 0.271 0.646 0.439 1.061 0.439s0.789-0.168 1.061-0.439l16-16c0.271-0.271 0.439-0.646 0.439-1.061s-0.168-0.789-0.439-1.061v0c-0.271-0.271-0.646-0.439-1.061-0.439v0z"></path>
            <path d="M8 6.5c-0.414 0-0.789 0.168-1.061 0.439v0c-0.271 0.271-0.439 0.646-0.439 1.061s0.168 0.789 0.439 1.061l16 16c0.271 0.271 0.646 0.439 1.061 0.439s0.789-0.168 1.061-0.439v0c0.271-0.271 0.439-0.646 0.439-1.061s-0.168-0.789-0.439-1.061l-16-16c-0.271-0.271-0.646-0.439-1.061-0.439v0z"></path>
        </symbol>
        <symbol id="plus" viewBox="0 0 32 32">
            <path d="M16 5.466c-0.663 0-1.2 0.537-1.2 1.2v0 18.669c0 0.663 0.537 1.2 1.2 1.2v0c0.663 0 1.2-0.537 1.2-1.2v0-18.669c0-0.663-0.537-1.2-1.2-1.2v0z"></path>
            <path d="M6.669 14.8c-0.663 0-1.2 0.537-1.2 1.2v0c0 0.663 0.537 1.2 1.2 1.2h18.666c0.663 0 1.2-0.537 1.2-1.2v0c0-0.663-0.537-1.2-1.2-1.2v0z"></path>
        </symbol>
        <symbol id="link-arrow" viewBox="0 0 51 32">
            <path d="M34.563 3.638c-0.434 0.434-0.703 1.034-0.703 1.697s0.269 1.263 0.703 1.697l6.569 6.569h-36.869c-1.325 0-2.4 1.075-2.4 2.4v0c0 1.325 1.075 2.4 2.4 2.4h36.869l-6.569 6.569c-0.434 0.434-0.703 1.034-0.703 1.697s0.269 1.263 0.703 1.697v0c0.435 0.436 1.036 0.706 1.7 0.706s1.265-0.27 1.7-0.706l10.663-10.663c0.217-0.218 0.392-0.477 0.513-0.765l0.006-0.016c0.117-0.271 0.186-0.587 0.188-0.918v-0.001c-0-0.664-0.27-1.265-0.706-1.7l-10.663-10.663c-0.435-0.436-1.036-0.706-1.7-0.706s-1.265 0.27-1.7 0.706l-0 0z"></path>
        </symbol>
        <symbol id="search" viewBox="0 0 32 32">
            <path d="M14.666 2.8c-6.54 0-11.866 5.326-11.866 11.866s5.326 11.869 11.866 11.869c6.54 0 11.869-5.329 11.869-11.869s-5.329-11.866-11.869-11.866zM14.666 5.2c5.243 0 9.469 4.223 9.469 9.466s-4.226 9.469-9.469 9.469c-5.243 0-9.466-4.226-9.466-9.469s4.223-9.466 9.466-9.466z"></path>
            <path d="M22.2 21c-0.001 0-0.002 0-0.003 0-0.331 0-0.63 0.134-0.847 0.35l0-0c-0.218 0.217-0.353 0.518-0.353 0.85s0.135 0.633 0.353 0.85l5.8 5.8c0.217 0.218 0.518 0.353 0.85 0.353s0.633-0.135 0.85-0.353l0-0c0.218-0.217 0.353-0.518 0.353-0.85s-0.135-0.633-0.353-0.85l-5.8-5.8c-0.217-0.216-0.516-0.35-0.847-0.35-0.001 0-0.002 0-0.003 0h0z"></path>
        </symbol>
        <symbol id="ukraine" viewBox="0 0 32 32">
            <path fill="#ffda44" style="fill: var(--color4, #ffda44)" d="M16 32c8.837 0 16-7.163 16-16s-7.163-16-16-16c-8.837 0-16 7.163-16 16s7.163 16 16 16z"></path>
            <path fill="#338af3" style="fill: var(--color5, #338af3)" d="M0 16c0-8.836 7.163-16 16-16s16 7.163 16 16z"></path>
        </symbol>
        <symbol id="uk" viewBox="0 0 32 32">
            <path fill="#f0f0f0" style="fill: var(--color1, #f0f0f0)" d="M16 32c8.837 0 16-7.163 16-16s-7.163-16-16-16c-8.837 0-16 7.163-16 16s7.163 16 16 16z"></path>
            <path fill="#0052b4" style="fill: var(--color2, #0052b4)" d="M3.308 6.259c-1.257 1.635-2.204 3.52-2.756 5.567h8.324l-5.567-5.567z"></path>
            <path fill="#0052b4" style="fill: var(--color2, #0052b4)" d="M31.449 11.826c-0.552-2.047-1.5-3.932-2.756-5.567l-5.567 5.567h8.323z"></path>
            <path fill="#0052b4" style="fill: var(--color2, #0052b4)" d="M0.551 20.174c0.552 2.047 1.5 3.932 2.756 5.567l5.567-5.567h-8.323z"></path>
            <path fill="#0052b4" style="fill: var(--color2, #0052b4)" d="M25.741 3.308c-1.635-1.257-3.52-2.204-5.567-2.756v8.324l5.567-5.567z"></path>
            <path fill="#0052b4" style="fill: var(--color2, #0052b4)" d="M6.259 28.692c1.635 1.257 3.52 2.204 5.567 2.756v-8.323l-5.567 5.567z"></path>
            <path fill="#0052b4" style="fill: var(--color2, #0052b4)" d="M11.826 0.551c-2.047 0.552-3.932 1.5-5.567 2.756l5.567 5.567v-8.323z"></path>
            <path fill="#0052b4" style="fill: var(--color2, #0052b4)" d="M20.174 31.449c2.047-0.552 3.932-1.5 5.567-2.756l-5.567-5.567v8.323z"></path>
            <path fill="#0052b4" style="fill: var(--color2, #0052b4)" d="M23.125 20.174l5.567 5.567c1.257-1.635 2.204-3.52 2.756-5.567h-8.323z"></path>
            <path fill="#d80027" style="fill: var(--color3, #d80027)" d="M31.865 13.913h-13.778v-13.778c-0.683-0.089-1.38-0.135-2.087-0.135s-1.404 0.046-2.087 0.135v13.778h-13.778c-0.089 0.683-0.135 1.38-0.135 2.087s0.046 1.404 0.135 2.087h13.778v13.778c0.683 0.089 1.38 0.135 2.087 0.135s1.404-0.046 2.087-0.135v-13.778h13.778c0.089-0.683 0.135-1.38 0.135-2.087s-0.047-1.404-0.135-2.087z"></path>
            <path fill="#d80027" style="fill: var(--color3, #d80027)" d="M20.174 20.174l7.14 7.14c0.328-0.328 0.642-0.672 0.941-1.027l-6.113-6.113h-1.968z"></path>
            <path fill="#d80027" style="fill: var(--color3, #d80027)" d="M11.826 20.174h-0l-7.14 7.14c0.328 0.328 0.671 0.642 1.027 0.941l6.113-6.113v-1.967z"></path>
            <path fill="#d80027" style="fill: var(--color3, #d80027)" d="M11.826 11.826v-0l-7.14-7.14c-0.328 0.328-0.642 0.671-0.941 1.027l6.113 6.113h1.968z"></path>
            <path fill="#d80027" style="fill: var(--color3, #d80027)" d="M20.174 11.826l7.14-7.14c-0.328-0.328-0.671-0.642-1.027-0.94l-6.113 6.113v1.968z"></path>
        </symbol>
        <symbol id="prev-page" viewBox="0 0 32 32">
            <path d="M20.12 24l1.88-1.88-6.107-6.12 6.107-6.12-1.88-1.88-8 8 8 8z"></path>
        </symbol>
        <symbol id="next-page" viewBox="0 0 32 32">
            <path d="M13.88 8l-1.88 1.88 6.107 6.12-6.107 6.12 1.88 1.88 8-8-8-8z"></path>
        </symbol>
        <symbol id="first-page" viewBox="0 0 32 32">
            <path d="M23.453 24l1.88-1.88-6.107-6.12 6.107-6.12-1.88-1.88-8 8 8 8z"></path>
            <path d="M14.667 24l1.88-1.88-6.107-6.12 6.107-6.12-1.88-1.88-8 8 8 8z"></path>
        </symbol>
        <symbol id="last-page" viewBox="0 0 32 32">
            <path d="M8.548 8l-1.88 1.88 6.107 6.12-6.107 6.12 1.88 1.88 8-8-8-8z"></path>
            <path d="M17.333 8l-1.88 1.88 6.107 6.12-6.107 6.12 1.88 1.88 8-8-8-8z"></path>
        </symbol>
        <symbol id="trash" viewBox="0 0 20 20" fill="none"
            xmlns="http://www.w3.org/2000/svg">
            <path d="M7.5 2.5H12.5M8.33333 8.75V12.9167M11.6667 8.75V12.9167" stroke="#121417" stroke-opacity="0.5" stroke-width="1.8" stroke-linecap="round" stroke-linejoin="round" />
            <path d="M2.5 5H17.5M15.8333 5L15.2489 13.7661C15.1612 15.0813 15.1174 15.7389 14.8333 16.2375C14.5833 16.6765 14.206 17.0294 13.7514 17.2497C13.235 17.5 12.5759 17.5 11.2578 17.5H8.74221C7.42409 17.5 6.76503 17.5 6.24861 17.2497C5.79396 17.0294 5.41674 16.6765 5.16665 16.2375C4.88259 15.7389 4.83875 15.0813 4.75107 13.7661L4.16667 5" stroke="#121417" stroke-opacity="0.5" stroke-width="1.8" stroke-linecap="round" stroke-linejoin="round" />
        </symbol>
        <symbol id="icon-edit-2" viewBox="0 0 24 24" fill="none" stroke="currentColor" stroke-width="2" stroke-linecap="round" stroke-linejoin="round" class="lucide lucide-pen">
            <path d="m14 2 4 4L7 17l-4 1 1-4L14 2z"></path>
            <path d="m16 4 2 2"></path>
        </symbol>
    </defs>
</svg>
