<svg aria-hidden="true" style="position: absolute; width: 0; height: 0; overflow: hidden;" version="1.1"
    xmlns="http://www.w3.org/2000/svg"
    xmlns:xlink="http://www.w3.org/1999/xlink">
    <defs>
        <symbol id="logo" viewBox="0 0 32 32">
            <path fill="#85aa9f" style="fill: var(--color1, #85aa9f)" d="M32 16c0 8.837-7.163 16-16 16s-16-7.163-16-16c0-8.837 7.163-16 16-16s16 7.163 16 16z"></path>
            <path fill="#fcfcfc" style="fill: var(--color2, #fcfcfc)" d="M15.956 14.815c4.696-3.542 4.904-5.689 0-9.482-4.997 3.873-4.353 5.927 0 9.482zM14.815 16.045c-3.542-4.696-5.689-4.904-9.482 0 3.873 4.997 5.927 4.353 9.482 0zM26.666 16.045c-3.542-4.696-5.689-4.904-9.482 0 3.873 4.997 5.927 4.353 9.482 0zM15.956 26.666c4.696-3.542 4.904-5.689 0-9.482-4.997 3.873-4.353 5.927 0 9.482z"></path>
        </symbol>
        <symbol id="error" viewBox="0 0 32 32">
            <path fill="#d80027" style="fill: var(--color2, #d80027)" d="M16 29.333c-7.364 0-13.333-5.969-13.333-13.333s5.969-13.333 13.333-13.333c7.364 0 13.333 5.969 13.333 13.333s-5.969 13.333-13.333 13.333zM14.666 20v2.667h2.667v-2.667h-2.667zM14.666 9.333v8h2.667v-8h-2.667z"></path>
        </symbol>
        <symbol id="success" viewBox="0 0 32 32">
            <path fill="#3cbf61" style="fill: var(--color1, #3cbf61)" d="M16 29.333c-7.364 0-13.333-5.969-13.333-13.333s5.969-13.333 13.333-13.333c7.364 0 13.333 5.969 13.333 13.333s-5.969 13.333-13.333 13.333zM14.459 21.98l9.427-9.428-1.885-1.885-7.541 7.543-3.772-3.772-1.885 1.885 5.657 5.657z"></path>
        </symbol>
        <symbol id="eye" viewBox="0 0 32 32">
            <path d="M16.122 3.612c-10.552 0-16.097 11.55-16.097 11.55-0.107 0.209-0.169 0.455-0.169 0.716s0.062 0.507 0.173 0.725l-0.004-0.009c0 0 5.545 11.55 16.097 11.55s16.097-11.55 16.097-11.55c0.107-0.209 0.169-0.455 0.169-0.716s-0.062-0.507-0.173-0.725l0.004 0.009c0 0-5.545-11.55-16.097-11.55zM16.122 6.812c7.521 0 12.029 7.837 12.712 9.066-0.683 1.229-5.191 9.066-12.712 9.066s-12.029-7.837-12.713-9.066c0.683-1.229 5.191-9.066 12.713-9.066z"></path>
            <path d="M16 10.4c-3.074 0-5.6 2.526-5.6 5.6s2.526 5.6 5.6 5.6c3.074 0 5.6-2.526 5.6-5.6s-2.526-5.6-5.6-5.6zM16 13.6c1.344 0 2.4 1.056 2.4 2.4s-1.056 2.4-2.4 2.4c-1.344 0-2.4-1.056-2.4-2.4s1.056-2.4 2.4-2.4z"></path>
        </symbol>
        <symbol id="eye-off" viewBox="0 0 32 32">
            <path d="M16.118 3.459c-1.066-0.002-2.128 0.12-3.166 0.362-0.714 0.171-1.236 0.804-1.236 1.558 0 0.129 0.015 0.255 0.044 0.375l-0.002-0.011c0.171 0.714 0.803 1.236 1.558 1.236 0.13 0 0.257-0.016 0.378-0.045l-0.011 0.002c0.797-0.187 1.613-0.28 2.431-0.278 0 0 0.001 0 0.002 0s0.001 0 0.002 0h-0c7.541 0 12.065 7.896 12.728 9.091-0.654 1.112-1.334 2.209-2.166 3.197-0.234 0.276-0.377 0.637-0.377 1.031 0 0.49 0.221 0.929 0.568 1.223l0.002 0.002c0.276 0.233 0.636 0.375 1.030 0.375 0.49 0 0.928-0.22 1.222-0.567l0.002-0.002c1.177-1.399 2.207-2.919 3.069-4.531 0.118-0.218 0.188-0.477 0.188-0.753 0-0.261-0.063-0.508-0.173-0.725l0.004 0.009c0 0-5.544-11.548-16.094-11.55zM8.412 6.219c-0.064-0.009-0.137-0.014-0.212-0.014-0.368 0-0.706 0.124-0.976 0.332l0.004-0.003c-2.969 2.267-5.418 5.143-7.184 8.434-0.12 0.219-0.19 0.48-0.19 0.757 0 0.261 0.062 0.507 0.173 0.724l-0.004-0.009c0 0 5.545 11.55 16.097 11.55 0.004 0 0.008 0 0.012 0s0.009-0 0.013-0h-0.001c3.207-0.052 6.315-1.128 8.866-3.072 0.385-0.295 0.631-0.756 0.631-1.273 0-0.367-0.123-0.704-0.331-0.974l0.003 0.004c-0.295-0.385-0.756-0.631-1.273-0.631-0.367 0-0.704 0.123-0.974 0.331l0.004-0.003c-2.004 1.528-4.443 2.372-6.963 2.416-7.53-0.010-12.047-7.886-12.713-9.084 1.505-2.546 3.42-4.829 5.775-6.628 0.384-0.295 0.63-0.755 0.63-1.272 0-0.366-0.123-0.703-0.329-0.972l0.003 0.004c-0.253-0.329-0.625-0.556-1.051-0.615l-0.008-0.001zM13.349 11.3c-0.018-0.001-0.039-0.001-0.059-0.001-0.422 0-0.806 0.163-1.091 0.43l0.001-0.001c-0.55 0.513-0.991 1.132-1.297 1.819s-0.471 1.426-0.484 2.178c-0.013 0.752 0.125 1.5 0.406 2.197s0.703 1.331 1.234 1.863c0.532 0.532 1.165 0.95 1.863 1.231s1.445 0.423 2.197 0.409c0.752-0.013 1.491-0.179 2.178-0.484s1.306-0.75 1.819-1.3c0.265-0.285 0.428-0.668 0.428-1.089 0-0.462-0.195-0.878-0.508-1.17l-0.001-0.001c-0.285-0.265-0.668-0.428-1.089-0.428-0.462 0-0.878 0.195-1.17 0.508l-0.001 0.001c-0.22 0.236-0.483 0.422-0.778 0.553s-0.612 0.204-0.934 0.209c-0.322 0.006-0.642-0.054-0.941-0.175-0 0-0.001 0-0.002 0s-0.001 0-0.002 0h0c-0.299-0.121-0.569-0.3-0.797-0.528s-0.407-0.498-0.528-0.797-0.181-0.621-0.175-0.944c0.006-0.322 0.078-0.64 0.209-0.934s0.32-0.558 0.556-0.778c0.313-0.293 0.509-0.709 0.509-1.17 0-0.423-0.164-0.807-0.432-1.093l0.001 0.001c-0.28-0.299-0.673-0.49-1.11-0.506l-0.003-0z"></path>
            <path d="M0.321-0.072c-0.289 0.29-0.469 0.689-0.469 1.131s0.179 0.842 0.469 1.131l29.331 29.331c0.29 0.289 0.689 0.468 1.131 0.468s0.842-0.179 1.131-0.468v0c0.289-0.29 0.468-0.689 0.468-1.131s-0.179-0.842-0.468-1.131l-29.331-29.331c-0.29-0.289-0.689-0.469-1.131-0.469s-0.842 0.179-1.131 0.469v0z"></path>
        </symbol>
        <symbol id="icon-heart" viewBox="0 0 36 32">
            <path stroke-linejoin="round" stroke-linecap="round" stroke-miterlimit="4" stroke-width="3.3455" d="M31.040 5.251c-0.743-0.743-1.625-1.333-2.596-1.735s-2.011-0.609-3.062-0.609-2.091 0.207-3.062 0.609c-0.971 0.402-1.853 0.992-2.596 1.735l-1.542 1.542-1.542-1.542c-1.501-1.501-3.536-2.344-5.658-2.344s-4.158 0.843-5.658 2.344c-1.501 1.501-2.344 3.536-2.344 5.658s0.843 4.158 2.344 5.658l12.858 12.858 12.858-12.858c0.743-0.743 1.333-1.625 1.735-2.596s0.609-2.011 0.609-3.062-0.207-2.091-0.609-3.062c-0.402-0.971-0.992-1.853-1.735-2.596z"></path>
        </symbol>
    </defs>
</svg>
